<?xml version="1.0" encoding="UTF-8" standalone="no"?>
<svg
   width="24"
   height="24"
   viewBox="0 0 24 24"
   fill="#000000"
   version="1.1"
   id="svg1"
   sodipodi:docname="brand-mastodon.svg"
   inkscape:version="1.4 (e7c3feb100, 2024-10-09)"
   xmlns:inkscape="http://www.inkscape.org/namespaces/inkscape"
   xmlns:sodipodi="http://sodipodi.sourceforge.net/DTD/sodipodi-0.dtd"
   xmlns="http://www.w3.org/2000/svg"
   xmlns:svg="http://www.w3.org/2000/svg">
  <defs
     id="defs1" />
  <sodipodi:namedview
     id="namedview1"
     pagecolor="#ffffff"
     bordercolor="#000000"
     borderopacity="0.25"
     inkscape:showpageshadow="2"
     inkscape:pageopacity="0.0"
     inkscape:pagecheckerboard="0"
     inkscape:deskcolor="#d1d1d1"
     inkscape:zoom="30.405063"
     inkscape:cx="10.097003"
     inkscape:cy="18.763322"
     inkscape:window-width="2560"
     inkscape:window-height="1410"
     inkscape:window-x="1080"
     inkscape:window-y="195"
     inkscape:window-maximized="1"
     inkscape:current-layer="svg1" />
  <path
     d="M 23.105347,5.4242796 C 22.760455,2.8883347 20.526066,0.88983908 17.87737,0.50258363 17.430503,0.43714633 15.737388,0.199 11.8153,0.199 H 11.78601 C 7.8628632,0.199 7.0211771,0.43714633 6.5743117,0.50258363 3.9993563,0.87911219 1.6478555,2.6748631 1.077332,5.2408189 0.80291725,6.5044976 0.77363175,7.9054915 0.82461005,9.1906238 c 0.072671,1.8429582 0.086772,3.6826792 0.25597595,5.5181322 0.1169755,1.219198 0.3210365,2.428682 0.610655,3.619377 0.5423209,2.199107 2.7376425,4.029174 4.8884862,4.775816 2.3028054,0.778627 4.7792668,0.907863 7.1521518,0.373306 0.261015,-0.06006 0.519185,-0.129811 0.77442,-0.20918 0.575951,-0.181282 1.251696,-0.384049 1.748459,-0.740197 0.0068,-0.005 0.0124,-0.01144 0.01634,-0.01888 0.004,-0.0074 0.0062,-0.01565 0.0064,-0.02403 v -1.778567 c -1.21e-4,-0.0078 -0.002,-0.01555 -0.0055,-0.02258 -0.0035,-0.007 -0.0086,-0.0132 -0.01485,-0.018 -0.0063,-0.0049 -0.01349,-0.0082 -0.02121,-0.01 -0.0077,-0.0017 -0.01577,-0.0016 -0.02348,9.1e-5 -1.520275,0.359175 -3.078162,0.539216 -4.641195,0.536372 -2.6899081,0 -3.4133717,-1.262589 -3.6205561,-1.788249 -0.1665153,-0.45428 -0.2722708,-0.928137 -0.3145423,-1.409558 -4.237e-4,-0.0081 0.00107,-0.01616 0.00437,-0.02357 0.0033,-0.0074 0.00835,-0.01392 0.014672,-0.01903 0.00635,-0.0051 0.013831,-0.0087 0.021818,-0.01041 0.008,-0.0017 0.016279,-0.0016 0.024209,4.55e-4 1.4949488,0.356723 3.0274184,0.536765 4.5652744,0.536371 0.369857,0 0.738624,0 1.108511,-0.0097 1.546691,-0.04291 3.176898,-0.121218 4.698656,-0.415155 0.03797,-0.0075 0.07592,-0.01395 0.108479,-0.0236 2.400299,-0.455914 4.684556,-1.886925 4.916672,-5.510629 0.0087,-0.142671 0.03038,-1.494312 0.03038,-1.64234 0.0011,-0.503117 0.163792,-3.5689641 -0.02387,-5.4526814 z M 19.41105,14.466321 H 16.887112 V 8.351752 c 0,-1.2872806 -0.542334,-1.9437808 -1.645428,-1.9437808 -1.212631,0 -1.820021,0.7766589 -1.820021,2.3106414 V 12.065537 H 10.912884 V 8.7186126 c 0,-1.5339825 -0.608479,-2.3106414 -1.8211107,-2.3106414 -1.096588,0 -1.6443375,0.6565002 -1.6454272,1.9437808 v 6.114569 H 4.9245568 V 8.166174 c 0,-1.2872814 0.3322747,-2.3099464 0.9967938,-3.0680265 0.6854888,-0.7562646 1.5846664,-1.1445791 2.7007721,-1.1445791 1.2917893,0 2.2679763,0.491286 2.9187583,1.4728595 l 0.628027,1.0426968 0.629085,-1.0426968 c 0.650782,-0.9815735 1.626969,-1.4728595 2.91661,-1.4728595 1.115016,0 2.014164,0.3883145 2.701832,1.1445791 0.664549,0.7573538 0.996793,1.7800189 0.996793,3.0680265 z"
     fill="inherit"
     id="path1"
     style="stroke-width:0.30259" />
</svg>
